<?xml version="1.0" standalone="no"?>
<!DOCTYPE svg PUBLIC "-//W3C//DTD SVG 20010904//EN"
 "http://www.w3.org/TR/2001/REC-SVG-20010904/DTD/svg10.dtd">
<svg version="1.0" xmlns="http://www.w3.org/2000/svg"
 width="255.000000pt" height="255.000000pt" viewBox="0 0 255.000000 255.000000"
 preserveAspectRatio="xMidYMid meet">
<metadata>
Created by potrace 1.14, written by Peter Selinger 2001-2017
</metadata>
<g transform="translate(0.000000,255.000000) scale(0.100000,-0.100000)"
fill="#000000" stroke="none">
<path d="M1388 2126 c-1 -2 -34 -6 -73 -10 -201 -19 -454 -95 -615 -184 -25
-14 -61 -34 -80 -45 -192 -106 -385 -307 -470 -489 -104 -222 -87 -472 45
-648 176 -237 511 -372 903 -364 610 11 1194 359 1347 803 74 213 41 425 -92
596 -126 163 -388 296 -648 330 -53 7 -311 16 -317 11z m302 -41 c30 -3 71
-10 90 -15 19 -5 46 -11 60 -14 86 -17 238 -83 322 -140 139 -94 239 -228 278
-375 17 -65 15 -196 -5 -276 -18 -75 -75 -196 -127 -273 -50 -75 -216 -233
-308 -294 -95 -62 -247 -141 -330 -170 -82 -29 -211 -68 -245 -74 -16 -2 -37
-7 -45 -9 -122 -33 -417 -38 -556 -9 -34 7 -72 15 -85 18 -95 17 -230 74 -338
143 -107 69 -220 207 -258 315 -22 64 -24 76 -28 168 -9 204 82 402 268 583
234 229 589 390 937 423 36 4 67 8 69 10 5 5 237 -4 301 -11z"/>
<path d="M1756 1927 c8 -51 12 -245 6 -287 -3 -21 -11 -32 -26 -35 -206 -46
-286 -68 -286 -79 0 -7 7 -27 16 -44 8 -18 30 -64 47 -104 52 -119 43 -112
114 -86 34 13 64 20 67 17 13 -13 -90 -263 -104 -254 -4 3 -10 15 -13 27 -3
13 -19 71 -36 130 -52 181 -102 274 -161 298 -16 7 -28 16 -25 20 14 23 -205
27 -279 5 -26 -8 -63 -24 -82 -35 -61 -38 -124 -142 -140 -234 -3 -17 -10 -34
-17 -38 -9 -6 -8 -8 3 -8 10 0 11 -3 4 -8 -6 -4 -16 -29 -23 -57 -36 -162 -61
-230 -108 -293 -34 -45 -76 -64 -142 -64 -63 0 -77 3 -108 20 -12 7 -33 12
-47 12 -13 0 -26 6 -29 13 -2 6 -8 9 -12 4 -10 -8 32 -103 58 -132 101 -110
155 -149 220 -159 9 -1 20 -5 23 -9 11 -11 124 -8 166 3 46 13 128 77 148 116
8 16 21 35 28 42 6 7 12 20 12 28 0 14 19 54 31 64 3 3 16 37 27 75 23 76 30
106 47 200 2 11 10 45 18 75 8 30 18 68 22 85 9 38 12 32 65 -125 92 -271 137
-319 292 -314 184 5 222 20 293 113 30 40 64 93 76 119 41 92 76 190 94 262
l18 73 86 -7 c47 -4 99 -8 115 -9 l30 -2 31 138 c19 81 28 140 22 144 -5 3
-62 7 -128 8 -65 2 -122 6 -127 9 -5 3 -8 17 -7 31 7 61 -171 253 -268 288
-16 6 -17 2 -11 -36z"/>
<path d="M1145 1953 c-56 -15 -95 -80 -95 -160 0 -78 43 -143 100 -152 76 -11
119 -6 146 19 36 34 54 80 54 140 0 94 -49 152 -132 156 -29 2 -62 0 -73 -3z"/>
</g>
</svg>
